<svg xmlns="http://www.w3.org/2000/svg" data-name="Layer 1" viewBox="0 0 512 512"><defs><linearGradient id="a" x1="255.994" x2="255.994" y1="8" y2="512.892" gradientUnits="userSpaceOnUse"><stop offset="0" stop-color="#00efd1"/><stop offset="1" stop-color="#00acea"/></linearGradient></defs><g data-name="&lt;Group&gt;"><path fill="url(#a)" d="m386.386 416.827-55.724-88.572A147.328 147.328 0 0 1 308 249.539v-13.448a4.868 4.868 0 0 1 4.853-4.919A25.218 25.218 0 0 0 338 206.2v-16.652C338 175.779 326.555 165 312.786 165H299v-38.542a12.94 12.94 0 1 1 25.878 0 13.111 13.111 0 0 1-13.1 13.061 10 10 0 1 0-.03 20 33.061 33.061 0 1 0-32.66-37.033 10.013 10.013 0 0 0-.086 2.186V165H266V18.559a10 10 0 0 0-20 0V165h-13V83.33a10.078 10.078 0 0 0-.084-2.186 33 33 0 1 0-32.672 37.033 10 10 0 1 0 .015-20A13.073 13.073 0 0 1 187.2 85.116a12.9 12.9 0 1 1 25.8 0V165h-13.786C185.445 165 174 175.779 174 189.548V206.2a25.1 25.1 0 0 0 25.093 24.972 4.879 4.879 0 0 1 4.907 4.919v13.448a147.328 147.328 0 0 1-22.665 78.72l-42.778 67.973L101.7 454.75A31.426 31.426 0 0 0 128.559 503h254.882a31.475 31.475 0 0 0 26.846-48.358Zm-188.13-77.9A167.3 167.3 0 0 0 224 249.539v-13.448a24.9 24.9 0 0 0-7.154-17.561c-.046-.047-.059-.092-.1-.138a25.209 25.209 0 0 0-17.665-7.22A5.068 5.068 0 0 1 194 206.2v-16.652c0-2.741 2.473-4.548 5.214-4.548h113.572c2.741 0 5.214 1.807 5.214 4.548V206.2a4.927 4.927 0 0 1-1.536 3.42c-.046.045-.152.091-.2.137a4.662 4.662 0 0 1-3.383 1.415A24.917 24.917 0 0 0 288 236.091v13.448a167.3 167.3 0 0 0 25.742 89.379l36.727 58.36a36.466 36.466 0 0 0-20.226-5.714c-15.463 0-23.777 7.869-29.842 13.614-5.354 5.072-8.589 8.134-16.083 8.134-7.46 0-10.683-3.059-16.019-8.125-6.055-5.749-14.348-13.623-29.791-13.623-15.463 0-23.769 7.869-29.834 13.614-5.354 5.072-8.585 8.134-16.079 8.134-7.449 0-10.67-3.058-16.007-8.125-3.48-3.3-7.75-7.306-13.662-10.118Zm195.468 138.227A11.4 11.4 0 0 1 383.441 483H128.559a11.477 11.477 0 0 1-9.925-17.695l33.494-53.1c4.116 1.2 6.939 3.895 10.689 7.455 6.055 5.748 14.347 13.634 29.778 13.634 15.463 0 23.769-7.862 29.833-13.608 5.354-5.071 8.586-8.129 16.079-8.129 7.461 0 10.682 3.06 16.018 8.127 6.054 5.749 14.346 13.623 29.789 13.623 15.463 0 23.769-7.869 29.834-13.614 5.354-5.072 8.585-8.133 16.079-8.133s10.726 3.063 16.077 8.139c5.648 5.356 13.246 12.552 26.762 13.5l20.3 32.1a11.417 11.417 0 0 1 .358 11.855Z" data-name="&lt;Compound Path&gt;"/></g></svg>